<svg id="Layer_1" xmlns="http://www.w3.org/2000/svg" viewBox="0 0 841.9 362.5"><style>.st0{fill:#f05141}</style><path class="st0" d="M567.6 46.3L654.3 158h28.1V4.8h-25.9v114.5L567.6 4.8h-25.8V158h25.8zM116.3 209.1L72.6 334 28.9 209.1H0l55.6 153.4h34.2l55.4-153.4zM174.9 209.1h27.2v153.2h-27.2zM248 209.1v153.4h96.2v-24.4h-69.1v-129zM198.4 81.7c0-29.8 24.3-54.1 54.1-54.1 10 0 19.3 2.8 27.4 7.4l-73.5 74.8c-5.2-8.3-8-17.9-8-28.1m108.2 0c0 29.8-24.3 54.1-54.1 54.1-10.2 0-19.8-2.8-27.8-7.8l73.7-74.8c5.2 8.3 8.2 17.9 8.2 28.5m-118 82.8l17.6-17.8c13 9.3 29.1 14.8 46.3 14.8 44.1 0 80-35.9 80-80 0-17.6-5.9-34.1-15.4-47.2l16-16.3-18.4-18-16.1 16.3c-13-9.1-28.9-14.6-45.9-14.6-44.1 0-80 35.9-80 80 0 17.6 5.7 33.7 15.2 46.9l-17.6 17.8 18.3 18.1zM576.8 303.8l21.7-49.3c2 .4 3.9.4 6.1.4s4.1-.2 6.1-.4l21.7 49.3h-55.6zm27.8-99.1c7.8 0 14.1 6.3 14.1 14.1s-6.3 14.1-14.1 14.1-14.1-6.3-14.1-14.1 6.3-14.1 14.1-14.1m36.3 13.9c0-20-16.3-36.3-36.3-36.3s-36.3 16.3-36.3 36.3c0 8.7 3 16.7 8.3 23l-53.2 120.6H551l15.2-34.6h76.5l15.2 34.6h27.6l-53.2-120.6c5.3-6 8.6-14.1 8.6-23M781.9 134.7c-16.7 0-32.4-6.1-48.5-18.7l-15.9 19.8c18.7 16.3 40.2 24.1 64.1 23.9 33.7-.4 54.1-18.9 54.1-45.9 0-25-14.8-38-48-45.6-27.4-6.3-38.5-10.4-38.5-24.3 0-10.2 8.5-18.9 25.4-18.9 20.2 0 35.4 9.3 41.5 13.5l13.5-19.8c-6.7-5.4-24.3-17.6-54.3-17.6-26.7 0-53 13.3-53 45 0 34.3 32.4 41.9 55.4 47.2 11.5 2.6 31.1 6.5 31.1 22.4-.2 11.6-10.4 19-26.9 19zM740.8 233.4h32.8c31.3 0 36.9 10.2 36.9 26.1s-6.1 26.9-37.8 26.9h-32.2l.3-53zm0 77.4h33.9l34.1 51.5h33l-37.6-55.6c22.2-6.5 33-22.6 33-47.8 0-37.8-21.5-49.8-65.4-49.8H715v153.2h25.9l-.1-51.5zM468.1 209.1l-67.6 74.7v-74.7h-25.8v153.4h25.8v-43l22.4-24.2 48.5 67.2h33.2L442 276.2l59.1-67.1zM400.5 29.1h32.8c31.3 0 36.9 10.2 36.9 26.1s-6.1 26.9-37.8 26.9h-32.2l.3-53zm0 77.4h33.9l34.1 51.5h32.8l-37.6-55.6c22.2-6.5 33-22.6 33-47.8 0-37.8-21.5-49.8-65.4-49.8h-56.7V158h25.9v-51.5zM33 134.1v-42h42.4c21.7 0 32.6 6.7 32.6 20.4 0 8.3-2.6 13.9-7.6 17-5 3-12.4 4.6-21.7 4.6H33zm0-105.4h38.2c9.6 0 16.5 1.5 21.1 4.8C96.9 36.8 99 42 99 49.4c0 12.8-9.3 19.1-28 19.1H33V28.7zm90.7 115.2c7.4-8.3 10.9-17.6 10.9-28.3 0-9.6-2.8-17.8-8.5-24.1-5.7-6.5-13.3-10.9-22.6-12.8 4.1-1.7 7.6-3.7 11.1-6.3 7.6-5.9 11.3-14.8 11.3-26.7 0-10-3.5-18.9-10.4-26.7-3.7-4.3-9.3-7.6-16.7-10-7.6-2.4-16.5-3.7-26.9-3.7H7v153.2h72.1c21.3-.5 35.9-5.3 44.6-14.6z"/></svg>